<svg width="80" height="80" data-testid="logo-black" viewBox="0 0 80 80" fill="none" xmlns="http://www.w3.org/2000/svg">
    <path d="M40.3558 51.9981H46.2835V51.0929H40.3558V51.9981ZM40.3558 54.4439H46.2835V53.558H40.3558V54.4439ZM40.3558 49.5522H46.2835V48.6471H40.3558V49.5522ZM36.0885 51.0929H30.1607V51.9981H36.0885V51.0929ZM36.0885 53.558H30.1607V54.4439H36.0885V53.558ZM36.0885 48.6471H30.1607V49.5522H36.0885V48.6471ZM45.5112 32.9514C43.0976 32.8358 40.6454 32.7588 38.2318 32.7588C35.8182 32.7588 33.366 32.8358 30.9524 32.9514V44.8917H8.03294C8.97907 50.6307 11.3347 55.9846 14.6945 60.4526C15.1386 59.817 15.8916 59.3934 16.7412 59.3934H30.9524V71.8344C33.2695 72.4699 35.7024 72.8166 38.2125 72.8166V72.9129H38.2318V72.8166C40.7419 72.8166 43.1748 72.4699 45.5112 71.8151V59.3934H59.7417C60.572 59.3934 61.325 59.7978 61.7691 60.4333C65.1289 55.9653 67.4652 50.5922 68.4307 44.8724H45.5112V32.9514ZM34.0225 36.6683L37.1119 38.1319L38.2125 34.9157L39.371 38.1319L42.4218 36.649L40.9543 39.7304L44.1789 40.8281L40.9543 41.9836L42.4411 45.0265L39.3324 43.5628L38.2318 46.7598L37.0733 43.5436L34.0225 45.0265L35.49 41.9259L32.2654 40.8281L35.5093 39.6726L34.0225 36.6683ZM23.1903 56.4083L20.1395 54.9254L18.981 58.1416L17.8804 54.9446L14.7717 56.4083L16.2778 53.3654L13.0339 52.2099L16.2585 51.1122L14.791 48.0116L17.8225 49.4945L18.981 46.2783L20.0816 49.4752L23.1903 48.0116L21.7035 51.0544L24.9281 52.2099L21.7035 53.3077L23.1903 56.4083ZM28.0947 56.1772H26.7431V55.195H28.0947V56.1772ZM28.0947 53.5388H26.7431V52.5566H28.0947V53.5388ZM28.0947 50.9003H26.7431V49.9182H28.0947V50.9003ZM28.0947 48.2812H26.7431V47.299H28.0947V48.2812ZM28.8284 56.1772V46.6827H34.8142C34.93 46.6635 35.0652 46.6827 35.181 46.6827C36.5519 46.6827 37.6139 47.7419 37.6139 49.0708V57.0246C37.1698 56.5046 36.494 56.1579 35.741 56.1579C35.6444 56.1772 30.7014 56.1772 28.8284 56.1772ZM42.4411 68.5604L39.3324 67.0968L38.2318 70.313L37.0733 67.0775L34.0225 68.5604L35.49 65.4598L32.2654 64.3621L35.49 63.2066L34.0032 60.1637L37.1119 61.6273L38.2125 58.4304L39.371 61.6466L42.4218 60.1637L40.9543 63.2643L44.1789 64.3621L40.9543 65.5176L42.4411 68.5604ZM53.254 48.0116L56.3627 49.4752L57.4633 46.2783L58.6218 49.4945L61.6726 48.0116L60.2051 51.1122L63.4297 52.2099L60.1858 53.3654L61.6726 56.4083L58.5639 54.9446L57.4633 58.1416L56.3048 54.9254L53.254 56.4083L54.7215 53.3077L51.4969 52.2099L54.7215 51.0544L53.254 48.0116ZM48.3496 47.2797H49.7012V48.2619H48.3496V47.2797ZM48.3496 49.9182H49.7012V50.9003H48.3496V49.9182ZM48.3496 52.5566H49.7012V53.5388H48.3496V52.5566ZM48.3496 55.195H49.7012V56.1772H48.3496V55.195ZM47.6351 46.6827V56.1772C45.7622 56.1772 40.7999 56.1772 40.7033 56.1772C39.9503 56.1772 39.2938 56.5046 38.8304 57.0438V49.09C38.8304 47.7419 39.8923 46.702 41.2633 46.702C41.3791 46.702 41.5143 46.6827 41.6301 46.702H47.6351V46.6827ZM59.4521 6.18199C53.5436 4.93019 45.7429 3.69764 38.2318 3.69764C26.9555 3.69764 15.042 6.49013 9.80934 7.896C8.76667 8.16562 7.99432 8.39673 7.53091 8.53154V34.1069C10.9292 33.5676 24.9281 31.4492 38.2125 31.4299C51.4969 31.4299 65.4957 33.5484 68.8941 34.1069V8.53154C68.4307 8.39673 67.6583 8.18488 66.6156 7.896C64.8972 7.4338 62.4063 6.81753 59.4521 6.18199ZM27.3996 8.87819C27.863 8.76264 26.859 8.01156 27.5154 8.05007C27.9402 8.06933 29.3498 8.06933 30.4118 8.58931C30.6048 8.66635 30.74 8.30043 31.1455 8.03081C31.1841 8.01156 31.2807 7.97304 31.3386 8.03081C31.7634 8.28118 31.8985 8.66635 32.1109 8.57005C33.1729 8.06933 34.5631 8.06933 34.9686 8.03081C35.6444 7.9923 34.6211 8.76264 35.0845 8.85893C37.4788 9.43669 39.2552 11.4588 39.2552 13.8662C39.2552 14.5595 39.0814 15.2143 38.8497 15.8305C38.7145 16.1579 38.3863 15.2335 38.2511 15.7727C38.0194 16.7549 37.7684 17.4868 37.2471 18.4689C36.745 19.3934 35.9341 17.4675 35.683 18.0067C35.2196 18.9697 34.1383 19.3163 33.3853 19.4319C33.2888 19.4319 33.2115 19.4319 33.3274 19.3356C33.366 19.2971 33.5591 19.1237 33.5977 18.7771C33.5977 18.7386 33.5784 18.6808 33.6556 18.6423C34.2349 18.3727 34.6597 17.8334 34.7755 17.1979C34.9493 16.6009 35.2003 15.7535 35.49 15.2335C36.1465 14.078 35.3548 12.6914 35.5479 12.3832C35.992 12.0944 36.2816 11.5936 36.2816 11.0159C36.2816 10.1107 35.5479 9.37891 34.6404 9.37891C34.1577 9.37891 33.7136 9.59076 33.4239 9.93741L33.3853 9.97593C33.2308 10.13 33.0957 10.3033 32.9605 10.4767C32.806 10.6692 32.8447 11.0159 33.0957 11.0737C34.2156 11.3625 34.93 13.8662 34.4859 14.675C34.2928 15.0409 33.6749 16.389 33.6749 16.7742C33.6749 17.2749 33.2695 17.6793 32.7674 17.6793C32.3813 17.6793 32.053 17.4482 31.9178 17.0823L31.9372 17.0438C32.2461 16.8512 32.9219 16.4468 32.9219 16.0231L32.7867 14.6558C33.3467 14.598 33.5977 14.2898 33.6749 13.7699C33.7329 13.7313 33.7715 13.6928 33.8101 13.6543C34.0032 13.481 34.119 13.0188 33.7136 13.0958C33.1536 13.1921 32.5164 13.1728 31.8792 13.3462C31.802 13.3654 31.7441 13.4425 31.7248 13.5195C31.7054 13.6351 32.053 15.2913 32.1495 15.6572C32.1495 15.6957 32.1302 15.715 32.1109 15.715C31.8599 15.6957 31.4158 15.6765 31.3 15.6765C31.1841 15.6765 30.7593 15.6957 30.489 15.715C30.4697 15.715 30.4311 15.6765 30.4311 15.6572C30.5083 15.272 30.8752 13.6158 30.8752 13.6158C30.8752 13.5388 30.8752 13.481 30.8366 13.4232C30.7207 13.2691 29.0988 13.1343 28.8864 13.0958C28.7898 13.0766 28.6933 13.1151 28.6354 13.1921C28.4809 13.4232 28.7512 13.6736 28.9443 13.7699C29.0215 14.2706 29.2725 14.5787 29.8132 14.6365L29.8325 14.6558C29.8132 14.752 29.678 16.0231 29.678 16.0231C29.678 16.4661 30.3538 16.832 30.6821 17.0246C30.7014 17.0438 30.7207 17.0823 30.7207 17.1016C30.5662 17.4097 30.238 17.6408 29.8904 17.6408C29.3884 17.6408 28.9829 17.2364 28.9829 16.7357C28.9829 16.4083 28.3843 15.0024 28.1526 14.6172C27.6699 13.7891 28.3843 11.324 29.5429 11.0351C29.7939 10.9774 29.929 10.6115 29.736 10.4189C29.2532 9.93741 28.6933 9.34039 27.9596 9.34039C27.052 9.34039 26.3376 10.0722 26.3376 10.9774C26.3376 12.0173 27.1293 12.1714 27.0713 12.4603C26.7431 13.4232 26.7431 14.4632 27.1679 15.195C27.4575 15.6957 27.6892 16.5238 27.8823 17.1016C27.9982 17.6986 28.3457 18.2186 28.8671 18.5075C29.1181 18.6615 29.0022 18.8541 29.0988 19.066C29.1567 19.1623 29.2339 19.2393 29.2919 19.2971C29.4077 19.3741 29.3112 19.3934 29.2339 19.3934C28.4809 19.2971 27.3031 18.9697 26.8203 17.949C26.5693 17.4097 25.739 19.3356 25.2563 18.4112C24.735 17.429 24.5033 16.6972 24.2523 15.715C24.1171 15.1757 23.7889 16.1001 23.6537 15.7727C23.422 15.1565 23.2482 14.5209 23.2482 13.8084C23.2482 11.4588 25.0246 9.43669 27.3996 8.87819ZM34.2156 10.5537C34.1963 10.5344 34.1963 10.4381 34.2349 10.4189C34.3507 10.3226 34.5052 10.2841 34.6597 10.2841C35.0652 10.2841 35.3934 10.6115 35.3934 11.0159C35.3934 11.247 35.2969 11.4396 35.1231 11.5744C35.0845 11.6129 35.0072 11.5744 34.9879 11.5359C34.7755 11.1507 34.5245 10.8233 34.2156 10.5537ZM32.5743 18.7578C32.4006 19.22 31.7441 19.066 31.3965 19.3548C31.3579 19.3934 31.2613 19.3934 31.2227 19.3548C30.8752 19.066 30.238 19.2008 30.0256 18.7C30.0063 18.6615 30.0063 18.5845 30.1028 18.5652C30.5662 18.5075 30.9717 18.2956 31.2613 17.9682C31.2807 17.9297 31.3579 17.9104 31.4351 17.9875C31.7054 18.2764 32.0723 18.5075 32.4971 18.5652C32.5357 18.5845 32.613 18.623 32.5743 18.7578ZM27.6506 11.5551C27.6313 11.5744 27.5541 11.6129 27.4961 11.5551C27.3417 11.4203 27.2258 11.2085 27.2258 10.9774C27.2258 10.5729 27.5541 10.2455 27.9596 10.2455C28.1526 10.2455 28.3264 10.3226 28.4616 10.4381C28.5195 10.4766 28.4809 10.5729 28.4616 10.5922C28.1526 10.9003 27.8823 11.2085 27.6506 11.5551ZM21.2015 20.934C20.6995 20.934 20.5064 21.0881 20.1395 21.3192C19.9078 21.4733 19.8499 21.0303 20.1202 20.1252C20.3326 19.4126 18.9231 19.0274 18.5948 19.3548C18.1121 19.7208 16.915 20.4526 15.7178 19.2008C15.4861 18.9504 16.2585 19.0274 16.2971 18.8156C16.3743 18.4882 16.6639 18.2956 16.7798 18.1801C16.857 18.0838 16.857 17.9297 16.7219 17.8719C16.355 17.6793 15.853 17.2557 15.9881 16.4853C16.0074 16.3698 15.3703 16.3312 15.5827 16.1387C16.7026 15.118 17.919 15.7535 18.4017 16.0809C18.479 16.1194 18.6527 16.1194 18.6721 15.9653C18.7107 15.6379 18.5369 15.4068 19.2127 14.8676C19.3479 14.752 18.8265 14.3091 19.1934 14.3284C21.4911 14.9061 20.4485 17.2942 20.9312 17.7179C21.8194 18.5075 23.9433 19.1237 25.9321 19.5474C26.1059 19.5859 26.7238 19.7978 26.859 19.8748C28.4809 20.7029 29.4656 20.6259 30.3345 20.2793C30.6048 20.1637 30.6048 20.5296 30.5083 20.6066C27.3031 23.6688 24.8508 22.8792 24.0013 22.3399C23.4027 21.9547 22.1669 21.9355 21.607 22.7251C21.5104 22.8214 21.3367 22.8792 21.2594 22.6288C21.0856 22.051 21.2787 21.6659 21.4525 21.2422C21.5684 20.9918 21.298 20.934 21.2015 20.934ZM51.7865 23.765C51.3617 24.131 50.5894 24.5546 49.3729 24.4969C48.8516 24.4776 48.6006 24.6317 48.4847 24.7665C48.4075 24.8628 48.3689 24.9976 48.3496 25.0169C48.2723 25.2672 48.3689 25.5368 48.504 25.7487C48.6392 25.9413 48.5813 26.0568 48.3882 26.0953C48.1951 26.1531 47.9248 26.1531 47.4034 25.9027C47.1717 25.7872 47.1138 25.9413 47.0752 26.0376C46.9787 26.2879 47.1524 26.5961 47.5 26.8272C47.6738 26.9812 47.6352 27.1353 47.3648 27.2316C46.9014 27.3857 46.4959 27.1738 45.8201 26.8079C45.434 26.5961 45.125 26.5575 44.8547 26.8657C44.7002 27.039 44.7195 27.1931 44.7968 27.2894C45.0671 27.5397 45.2216 28.0597 44.5651 28.8878C44.3527 29.1574 44.121 28.4064 43.9086 28.5026C43.0204 28.9263 42.2866 28.3678 41.997 28.0019C41.9391 27.9249 41.8039 27.9056 41.6494 28.0019C41.2053 28.3101 40.2399 28.7915 39.873 27.9249C39.8151 27.7901 39.2938 28.1175 39.2938 27.8671C39.3131 26.442 40.5488 26.1724 41.0895 26.1338C41.244 26.1146 41.2826 26.0376 41.2053 25.9027C40.9929 25.5946 40.7419 25.2287 40.8771 24.805C40.9736 24.4969 40.1627 24.4198 40.4909 24.2465C42.1322 23.4377 43.0397 24.9976 43.3293 25.1517C43.812 25.4213 45.936 24.728 46.2063 23.5725C46.2642 23.3414 45.7043 23.2451 45.1636 23.1103C45.0671 23.091 45.0092 22.9562 45.1829 22.8214C46.4766 21.8584 47.5193 20.6066 49.8557 20.3755C50.1453 20.337 50.2611 20.5874 50.2611 20.7029C50.2998 21.0688 50.3963 21.4155 50.5508 21.7429C50.8983 22.4555 51.3038 22.8984 51.7093 23.2258C51.941 23.4569 51.9024 23.6688 51.7865 23.765ZM61.5954 23.0332C61.8078 23.1488 61.8078 23.2643 61.6533 23.3991C61.4988 23.5339 61.2478 23.6688 60.6879 23.6688C60.4368 23.6688 60.4368 23.8228 60.4561 23.9384C60.4948 24.208 60.7844 24.4006 61.1899 24.4584C61.4023 24.5161 61.4602 24.6702 61.2478 24.8628C60.9002 25.2094 60.4561 25.2094 59.6838 25.1902C58.9501 25.1709 58.3708 26.0376 58.7956 26.4035C59.0852 26.6538 59.6645 27.1931 59.1625 28.6952C59.008 29.1382 58.7184 28.2908 58.4867 28.4256C57.8881 28.7915 57.3474 28.3293 57.0771 28.0019C56.9613 27.8671 56.8454 27.8671 56.7682 28.0019C56.5172 28.4256 55.88 29.1574 54.6056 28.4641C54.3353 28.3101 53.756 28.83 53.7174 28.6567C53.505 27.6553 54.0263 27.0775 54.4511 26.7694C54.4898 26.7309 54.6635 26.4998 54.3739 26.519C53.9491 26.4998 53.4085 26.365 53.3505 25.8257C53.3505 25.7102 52.7906 25.7487 52.8292 25.5946C52.9644 24.8628 54.567 24.3235 55.6869 25.0746C56.633 25.6909 57.8109 23.5725 56.9613 22.5903C56.3434 21.8777 52.752 23.8806 51.5355 21.2807C51.0528 20.2407 51.6514 19.3548 51.1687 19.2778C50.6666 19.2008 48.4075 18.7193 45.8974 20.7222C41.6688 24.1117 37.0733 22.2629 35.992 21.5118C35.8182 21.454 35.6637 21.5888 35.7217 21.7622C35.8954 22.2051 35.8182 22.6095 35.6058 22.9177C35.1617 23.5917 33.6363 24.2658 33.366 24.3428C31.5896 24.8628 31.7634 26.2301 31.9565 26.8272C32.0144 27.0197 31.9372 27.116 31.7441 27.0968C31.2034 27.0005 30.1028 26.6538 29.6587 25.5946C29.6201 25.4791 29.4849 25.4598 29.3305 25.5754C28.674 26.0376 28.9057 26.7309 29.0601 27.039C29.1181 27.1546 29.0795 27.2701 28.925 27.2894C28.3264 27.3664 27.8823 26.6538 27.361 26.7116C27.0134 26.7501 26.6272 27.0005 26.3955 27.1546C26.299 27.2123 26.2797 27.3857 26.3376 27.5975C26.9941 29.5619 25.9128 29.6389 25.8356 29.6004C25.7584 29.5619 25.797 29.2345 25.488 29.1767C24.4067 29.2345 24.1171 28.5412 24.0592 28.0212C24.0399 27.8479 23.9626 27.7901 23.8661 27.8671C23.4606 28.156 22.4566 28.6952 21.8194 27.8864C21.7228 27.7708 21.4332 27.8864 21.2594 27.9634C21.1243 28.0212 21.1243 27.8093 21.1243 27.7323C21.2015 26.6153 21.9545 26.0953 22.3793 25.9027C22.5338 25.8257 22.5531 25.7487 22.4179 25.6524C22.0704 25.402 21.4718 24.8628 21.6649 24.2658C21.7035 24.1502 21.1629 23.9384 21.298 23.8421C22.5338 22.9562 24.1171 24.4198 24.3102 24.5932C24.5226 24.7665 25.6425 24.805 28.5002 23.1873C30.3152 22.1666 31.2613 21.3192 31.7827 20.6837C31.8406 20.6066 31.9758 20.4718 32.1689 20.4718C33.3274 20.4333 34.4666 20.26 35.3548 19.4896C35.5093 19.3356 35.6444 19.4319 35.7217 19.4704C37.3629 20.6066 38.1932 18.103 38.5407 16.9475C38.5794 16.7164 38.6373 16.5238 38.8883 16.5046C44.9126 16.7935 56.3241 16.7549 56.3241 16.7549C56.3241 16.7549 57.8302 16.8705 57.7529 15.9461C57.6371 14.4439 51.4004 14.4824 46.7663 15.118C45.0864 15.3491 42.6342 15.4839 41.186 14.9254C40.5875 14.6943 40.1047 14.3284 39.8344 13.8469C39.5448 13.2306 39.622 12.8647 39.68 12.4795C39.7572 12.2099 39.8923 11.9018 40.0854 11.5936C41.2826 9.76408 44.0244 9.61001 44.8933 9.61001C45.0478 9.61001 45.1636 9.53298 45.1829 9.41743C45.2602 8.99374 45.5884 8.01156 46.7469 7.95378C47.0752 7.93452 47.4034 7.81897 47.6158 7.72268C47.751 7.6649 47.8475 7.70342 47.8089 7.81897C47.7703 7.97304 47.7124 8.16562 47.5386 8.31969C46.7276 9.013 46.8435 9.3404 46.94 9.41743C46.998 9.45595 47.0752 9.43669 47.1331 9.37891C49.5853 7.24121 51.0142 8.66635 51.4583 9.12855C51.5355 9.20559 51.5548 9.34039 51.4004 9.37891C49.7398 9.74482 49.0833 11.2277 45.685 10.9966C45.2795 10.9774 42.4797 10.8233 41.5915 12.0944C41.0895 12.8262 41.437 13.5002 42.9431 13.8469C44.0823 14.0973 46.7469 13.7121 48.002 13.6158C49.2378 13.5195 54.5863 12.8455 57.4054 13.6543C58.5832 14.001 60.321 14.9446 59.9734 16.7357C59.7417 17.8719 58.6604 18.3149 58.6604 18.3149C58.6604 18.3149 55.571 20.4718 61.1126 20.5104C62.8311 20.5104 61.132 21.9355 61.0547 22.3399C61.0547 22.6095 61.325 22.8792 61.5954 23.0332ZM51.439 11.0737C51.2652 11.1122 51.0335 11.17 50.7632 11.3433C50.2611 11.6707 48.253 12.4988 47.6351 11.5166C47.6351 11.5166 49.0447 11.4781 49.9522 10.6692C49.9522 10.6692 50.9369 10.3418 51.5162 10.8618C51.5934 10.9003 51.5934 11.0351 51.439 11.0737ZM38.2318 0C19.3865 0 0.637695 5.00722 0.637695 5.00722V30.0048C0.637695 52.5373 16.8184 75.9557 38.2318 80C60.4368 75.6668 75.8452 52.5181 75.8452 30.0048V5.00722C75.8259 5.00722 60.1086 0 38.2318 0ZM70.2457 39.1334C70.2457 57.4868 56.2662 74.1261 38.2318 74.1454H38.2125C20.1781 74.1261 6.19861 57.4675 6.19861 39.1334C6.19861 17.5831 6.19861 7.54935 6.19861 7.54935L6.66202 7.41454C6.70064 7.41454 22.9007 2.38806 38.2125 2.38806C53.5243 2.38806 69.763 7.41454 69.763 7.41454L70.2264 7.54935C70.2457 7.54935 70.2457 17.5831 70.2457 39.1334Z" fill="#141414"></path>
</svg>